<svg width="83" height="26" viewBox="0 0 83 26" fill="none" xmlns="http://www.w3.org/2000/svg">
<path d="M2.14569e-07 13L5 7L5 19L2.14569e-07 13Z" fill="black" fill-opacity="0.7"/>
<rect x="5" width="78" height="26" rx="2" fill="black" fill-opacity="0.7"/>
<path d="M17.926 12.666V9.824H19.48C20.586 9.824 21.076 10.356 21.076 11.252C21.076 12.12 20.586 12.666 19.48 12.666H17.926ZM23.092 11.252C23.092 9.558 21.916 8.228 19.564 8.228H15.966V18H17.926V14.248H19.564C22.084 14.248 23.092 12.736 23.092 11.252ZM26.4436 14.136C26.4436 12.638 27.1436 12.19 28.3056 12.19H28.8236V10.132C27.7456 10.132 26.9336 10.65 26.4436 11.448V10.244H24.4836V18H26.4436V14.136ZM37.6337 14.122C37.6337 11.672 35.8837 10.118 33.6437 10.118C31.4037 10.118 29.6537 11.672 29.6537 14.122C29.6537 16.558 31.3477 18.126 33.5877 18.126C35.8417 18.126 37.6337 16.558 37.6337 14.122ZM31.6417 14.122C31.6417 12.568 32.5797 11.826 33.6157 11.826C34.6517 11.826 35.6177 12.568 35.6177 14.122C35.6177 15.662 34.6237 16.418 33.5877 16.418C32.5377 16.418 31.6417 15.662 31.6417 14.122ZM40.0655 9.32C40.7515 9.32 41.2555 8.816 41.2555 8.172C41.2555 7.528 40.7515 7.024 40.0655 7.024C39.3515 7.024 38.8475 7.528 38.8475 8.172C38.8475 8.816 39.3515 9.32 40.0655 9.32ZM39.0715 10.244V19.288C39.0715 19.806 38.8615 20.03 38.2595 20.03H37.6995V21.696H38.5675C40.0655 21.696 41.0315 21.066 41.0315 19.274V10.244H39.0715ZM46.3 11.728C47.308 11.728 48.12 12.372 48.148 13.394H44.466C44.62 12.33 45.362 11.728 46.3 11.728ZM49.982 15.564H47.868C47.616 16.082 47.154 16.502 46.314 16.502C45.334 16.502 44.55 15.858 44.452 14.71H50.122C50.164 14.458 50.178 14.206 50.178 13.954C50.178 11.644 48.596 10.118 46.356 10.118C44.06 10.118 42.464 11.672 42.464 14.122C42.464 16.558 44.102 18.126 46.356 18.126C48.274 18.126 49.562 16.992 49.982 15.564ZM51.1046 14.122C51.1046 16.558 52.7006 18.126 54.9406 18.126C56.8726 18.126 58.1746 17.034 58.5946 15.382H56.4806C56.2426 16.082 55.7386 16.446 54.9266 16.446C53.8346 16.446 53.1066 15.634 53.1066 14.122C53.1066 12.61 53.8346 11.784 54.9266 11.784C55.7386 11.784 56.2566 12.204 56.4806 12.862H58.5946C58.1746 11.126 56.8726 10.118 54.9406 10.118C52.7006 10.118 51.1046 11.686 51.1046 14.122ZM60.3385 15.592C60.3385 17.37 61.3325 18 62.8165 18H64.0485V16.348H63.1385C62.5225 16.348 62.3125 16.124 62.3125 15.606V11.854H64.0485V10.244H62.3125V8.326H60.3385V10.244H59.4145V11.854H60.3385V15.592ZM71.4782 15.788C71.4222 12.946 67.1242 13.828 67.1242 12.414C67.1242 11.966 67.5022 11.672 68.2302 11.672C69.0002 11.672 69.4762 12.078 69.5322 12.68H71.4082C71.2962 11.14 70.1622 10.118 68.2862 10.118C66.3682 10.118 65.2202 11.154 65.2202 12.442C65.2202 15.284 69.6022 14.402 69.6022 15.788C69.6022 16.236 69.1822 16.586 68.4122 16.586C67.6282 16.586 67.0822 16.138 67.0122 15.55H65.0382C65.1222 16.992 66.4802 18.126 68.4262 18.126C70.3162 18.126 71.4782 17.118 71.4782 15.788Z" fill="white"/>
</svg>
