<svg width="73" height="26" viewBox="0 0 73 26" fill="none" xmlns="http://www.w3.org/2000/svg">
<path d="M2.14569e-07 13L5 7L5 19L2.14569e-07 13Z" fill="black" fill-opacity="0.7"/>
<rect x="5" width="68" height="26" rx="2" fill="black" fill-opacity="0.7"/>
<path d="M22.798 15.172C22.798 11.728 17.786 12.82 17.786 10.86C17.786 10.062 18.36 9.684 19.13 9.712C19.97 9.726 20.488 10.23 20.53 10.874H22.686C22.56 9.11 21.188 8.088 19.186 8.088C17.17 8.088 15.742 9.152 15.742 10.916C15.728 14.458 20.768 13.184 20.768 15.298C20.768 15.998 20.222 16.488 19.298 16.488C18.388 16.488 17.87 15.97 17.814 15.186H15.714C15.742 17.034 17.31 18.098 19.34 18.098C21.566 18.098 22.798 16.712 22.798 15.172ZM24.8053 15.592C24.8053 17.37 25.7993 18 27.2833 18H28.5153V16.348H27.6053C26.9893 16.348 26.7793 16.124 26.7793 15.606V11.854H28.5153V10.244H26.7793V8.326H24.8053V10.244H23.8813V11.854H24.8053V15.592ZM29.421 14.094C29.421 16.516 30.989 18.126 32.949 18.126C34.181 18.126 35.063 17.538 35.525 16.866V18H37.499V10.244H35.525V11.35C35.063 10.706 34.209 10.118 32.963 10.118C30.989 10.118 29.421 11.672 29.421 14.094ZM35.525 14.122C35.525 15.592 34.545 16.404 33.467 16.404C32.417 16.404 31.423 15.564 31.423 14.094C31.423 12.624 32.417 11.84 33.467 11.84C34.545 11.84 35.525 12.652 35.525 14.122ZM38.9093 14.122C38.9093 16.558 40.5053 18.126 42.7453 18.126C44.6773 18.126 45.9793 17.034 46.3993 15.382H44.2853C44.0473 16.082 43.5433 16.446 42.7313 16.446C41.6393 16.446 40.9113 15.634 40.9113 14.122C40.9113 12.61 41.6393 11.784 42.7313 11.784C43.5433 11.784 44.0613 12.204 44.2853 12.862H46.3993C45.9793 11.126 44.6773 10.118 42.7453 10.118C40.5053 10.118 38.9093 11.686 38.9093 14.122ZM47.8351 18H49.7951V14.696L52.4271 18H54.9751L51.5311 14.136L54.9471 10.244H52.3991L49.7951 13.534V7.64H47.8351V18ZM62.0309 15.788C61.9749 12.946 57.6769 13.828 57.6769 12.414C57.6769 11.966 58.0549 11.672 58.7829 11.672C59.5529 11.672 60.0289 12.078 60.0849 12.68H61.9609C61.8489 11.14 60.7149 10.118 58.8389 10.118C56.9209 10.118 55.7729 11.154 55.7729 12.442C55.7729 15.284 60.1549 14.402 60.1549 15.788C60.1549 16.236 59.7349 16.586 58.9649 16.586C58.1809 16.586 57.6349 16.138 57.5649 15.55H55.5909C55.6749 16.992 57.0329 18.126 58.9789 18.126C60.8689 18.126 62.0309 17.118 62.0309 15.788Z" fill="white"/>
</svg>
