<svg width="105" height="26" viewBox="0 0 105 26" fill="none" xmlns="http://www.w3.org/2000/svg">
<path d="M2.14569e-07 13L5 7L5 19L2.14569e-07 13Z" fill="black" fill-opacity="0.7"/>
<rect x="5" width="100" height="26" rx="2" fill="black" fill-opacity="0.7"/>
<path d="M19.382 8.228H15.966V18H19.382C22.504 18 24.534 16.082 24.534 13.128C24.534 10.16 22.504 8.228 19.382 8.228ZM17.926 16.334V9.88H19.312C21.37 9.88 22.532 11.098 22.532 13.128C22.532 15.158 21.37 16.334 19.312 16.334H17.926ZM25.4972 14.094C25.4972 16.516 27.0652 18.126 29.0252 18.126C30.2572 18.126 31.1392 17.538 31.6012 16.866V18H33.5752V10.244H31.6012V11.35C31.1392 10.706 30.2852 10.118 29.0392 10.118C27.0652 10.118 25.4972 11.672 25.4972 14.094ZM31.6012 14.122C31.6012 15.592 30.6212 16.404 29.5432 16.404C28.4932 16.404 27.4992 15.564 27.4992 14.094C27.4992 12.624 28.4932 11.84 29.5432 11.84C30.6212 11.84 31.6012 12.652 31.6012 14.122ZM41.5094 15.788C41.4534 12.946 37.1554 13.828 37.1554 12.414C37.1554 11.966 37.5334 11.672 38.2614 11.672C39.0314 11.672 39.5074 12.078 39.5634 12.68H41.4394C41.3274 11.14 40.1934 10.118 38.3174 10.118C36.3994 10.118 35.2514 11.154 35.2514 12.442C35.2514 15.284 39.6334 14.402 39.6334 15.788C39.6334 16.236 39.2134 16.586 38.4434 16.586C37.6594 16.586 37.1134 16.138 37.0434 15.55H35.0694C35.1534 16.992 36.5114 18.126 38.4574 18.126C40.3474 18.126 41.5094 17.118 41.5094 15.788ZM43.1183 18H45.0783V13.716C45.0783 12.47 45.7643 11.798 46.8283 11.798C47.8643 11.798 48.5503 12.47 48.5503 13.716V18H50.5103V13.45C50.5103 11.308 49.2363 10.132 47.4863 10.132C46.4503 10.132 45.5823 10.552 45.0783 11.21V7.64H43.1183V18ZM54.3342 11.378V7.64H52.3742V18H54.3342V16.894C54.8102 17.566 55.6782 18.126 56.8962 18.126C58.8842 18.126 60.4382 16.516 60.4382 14.094C60.4382 11.672 58.8842 10.118 56.8962 10.118C55.7202 10.118 54.8102 10.664 54.3342 11.378ZM58.4362 14.094C58.4362 15.564 57.4422 16.404 56.3782 16.404C55.3282 16.404 54.3342 15.592 54.3342 14.122C54.3342 12.652 55.3282 11.84 56.3782 11.84C57.4422 11.84 58.4362 12.624 58.4362 14.094ZM69.3525 14.122C69.3525 11.672 67.6025 10.118 65.3625 10.118C63.1225 10.118 61.3725 11.672 61.3725 14.122C61.3725 16.558 63.0665 18.126 65.3065 18.126C67.5605 18.126 69.3525 16.558 69.3525 14.122ZM63.3605 14.122C63.3605 12.568 64.2985 11.826 65.3345 11.826C66.3705 11.826 67.3365 12.568 67.3365 14.122C67.3365 15.662 66.3425 16.418 65.3065 16.418C64.2565 16.418 63.3605 15.662 63.3605 14.122ZM70.2862 14.094C70.2862 16.516 71.8542 18.126 73.8142 18.126C75.0462 18.126 75.9282 17.538 76.3902 16.866V18H78.3642V10.244H76.3902V11.35C75.9282 10.706 75.0742 10.118 73.8282 10.118C71.8542 10.118 70.2862 11.672 70.2862 14.094ZM76.3902 14.122C76.3902 15.592 75.4102 16.404 74.3322 16.404C73.2822 16.404 72.2882 15.564 72.2882 14.094C72.2882 12.624 73.2822 11.84 74.3322 11.84C75.4102 11.84 76.3902 12.652 76.3902 14.122ZM82.2385 14.136C82.2385 12.638 82.9385 12.19 84.1005 12.19H84.6185V10.132C83.5405 10.132 82.7285 10.65 82.2385 11.448V10.244H80.2785V18H82.2385V14.136ZM85.4347 14.094C85.4347 16.516 87.0027 18.126 88.9767 18.126C90.1947 18.126 91.0627 17.566 91.5247 16.852V18H93.5127V7.64H91.5247V11.322C90.9927 10.594 90.0127 10.118 88.9907 10.118C87.0027 10.118 85.4347 11.672 85.4347 14.094ZM91.5387 14.122C91.5387 15.592 90.5587 16.404 89.4807 16.404C88.4307 16.404 87.4367 15.564 87.4367 14.094C87.4367 12.624 88.4307 11.84 89.4807 11.84C90.5587 11.84 91.5387 12.652 91.5387 14.122Z" fill="white"/>
</svg>
