<svg width="93" height="26" viewBox="0 0 93 26" fill="none" xmlns="http://www.w3.org/2000/svg">
<path d="M2.14569e-07 13L5 7L5 19L2.14569e-07 13Z" fill="black" fill-opacity="0.7"/>
<rect x="5" width="88" height="26" rx="2" fill="black" fill-opacity="0.7"/>
<path d="M22.602 18H24.674L21.16 8.214H18.878L15.364 18H17.422L18.066 16.138H21.958L22.602 18ZM21.426 14.57H18.598L20.012 10.482L21.426 14.57ZM25.4835 14.122C25.4835 16.558 27.0795 18.126 29.3195 18.126C31.2515 18.126 32.5535 17.034 32.9735 15.382H30.8595C30.6215 16.082 30.1175 16.446 29.3055 16.446C28.2135 16.446 27.4855 15.634 27.4855 14.122C27.4855 12.61 28.2135 11.784 29.3055 11.784C30.1175 11.784 30.6355 12.204 30.8595 12.862H32.9735C32.5535 11.126 31.2515 10.118 29.3195 10.118C27.0795 10.118 25.4835 11.686 25.4835 14.122ZM33.9054 14.122C33.9054 16.558 35.5014 18.126 37.7414 18.126C39.6734 18.126 40.9754 17.034 41.3954 15.382H39.2814C39.0434 16.082 38.5394 16.446 37.7274 16.446C36.6354 16.446 35.9074 15.634 35.9074 14.122C35.9074 12.61 36.6354 11.784 37.7274 11.784C38.5394 11.784 39.0574 12.204 39.2814 12.862H41.3954C40.9754 11.126 39.6734 10.118 37.7414 10.118C35.5014 10.118 33.9054 11.686 33.9054 14.122ZM50.3212 14.122C50.3212 11.672 48.5712 10.118 46.3312 10.118C44.0912 10.118 42.3412 11.672 42.3412 14.122C42.3412 16.558 44.0352 18.126 46.2752 18.126C48.5292 18.126 50.3212 16.558 50.3212 14.122ZM44.3292 14.122C44.3292 12.568 45.2672 11.826 46.3032 11.826C47.3392 11.826 48.3052 12.568 48.3052 14.122C48.3052 15.662 47.3112 16.418 46.2752 16.418C45.2252 16.418 44.3292 15.662 44.3292 14.122ZM59.081 10.244H57.107V14.514C57.107 15.76 56.435 16.432 55.371 16.432C54.335 16.432 53.649 15.76 53.649 14.514V10.244H51.689V14.794C51.689 16.922 52.991 18.098 54.797 18.098C55.763 18.098 56.617 17.678 57.107 17.02V18H59.081V10.244ZM66.4468 18H68.4068V13.45C68.4068 11.308 67.1188 10.132 65.3128 10.132C64.3188 10.132 63.4788 10.552 62.9748 11.21V10.244H61.0148V18H62.9748V13.716C62.9748 12.47 63.6608 11.798 64.7248 11.798C65.7608 11.798 66.4468 12.47 66.4468 13.716V18ZM70.5787 15.592C70.5787 17.37 71.5727 18 73.0567 18H74.2887V16.348H73.3787C72.7627 16.348 72.5527 16.124 72.5527 15.606V11.854H74.2887V10.244H72.5527V8.326H70.5787V10.244H69.6547V11.854H70.5787V15.592ZM81.7184 15.788C81.6624 12.946 77.3644 13.828 77.3644 12.414C77.3644 11.966 77.7424 11.672 78.4704 11.672C79.2404 11.672 79.7164 12.078 79.7724 12.68H81.6484C81.5364 11.14 80.4024 10.118 78.5264 10.118C76.6084 10.118 75.4604 11.154 75.4604 12.442C75.4604 15.284 79.8424 14.402 79.8424 15.788C79.8424 16.236 79.4224 16.586 78.6524 16.586C77.8684 16.586 77.3224 16.138 77.2524 15.55H75.2784C75.3624 16.992 76.7204 18.126 78.6664 18.126C80.5564 18.126 81.7184 17.118 81.7184 15.788Z" fill="white"/>
</svg>
