<svg width="156" height="26" viewBox="0 0 156 26" fill="none" xmlns="http://www.w3.org/2000/svg">
<path d="M2.14569e-07 13L5 7L5 19L2.14569e-07 13Z" fill="black" fill-opacity="0.7"/>
<rect x="5" width="151" height="26" rx="2" fill="black" fill-opacity="0.7"/>
<path d="M21.146 11.266C21.146 10.398 20.656 9.852 19.564 9.852H17.926V12.722H19.564C20.656 12.722 21.146 12.148 21.146 11.266ZM15.966 8.228H19.634C21.986 8.228 23.162 9.586 23.162 11.224C23.162 12.414 22.504 13.618 20.936 14.038L23.274 18H21.006L18.85 14.192H17.926V18H15.966V8.228ZM32.4248 14.122C32.4248 16.558 30.6328 18.126 28.3788 18.126C26.1388 18.126 24.4448 16.558 24.4448 14.122C24.4448 11.672 26.1948 10.118 28.4348 10.118C30.6748 10.118 32.4248 11.672 32.4248 14.122ZM26.4328 14.122C26.4328 15.662 27.3288 16.418 28.3788 16.418C29.4148 16.418 30.4088 15.662 30.4088 14.122C30.4088 12.568 29.4428 11.826 28.4068 11.826C27.3708 11.826 26.4328 12.568 26.4328 14.122ZM33.8625 18V7.64H35.8225V18H33.8625ZM41.091 11.728C40.153 11.728 39.411 12.33 39.257 13.394H42.939C42.911 12.372 42.099 11.728 41.091 11.728ZM44.773 15.564C44.353 16.992 43.065 18.126 41.147 18.126C38.893 18.126 37.255 16.558 37.255 14.122C37.255 11.672 38.851 10.118 41.147 10.118C43.387 10.118 44.969 11.644 44.969 13.954C44.969 14.206 44.955 14.458 44.913 14.71H39.243C39.341 15.858 40.125 16.502 41.105 16.502C41.945 16.502 42.407 16.082 42.659 15.564H44.773ZM49.7355 18V8.228H51.9615L55.0695 15.494L58.1775 8.228H60.3895V18H58.4295V11.644L55.8115 18H54.3275L51.6955 11.644V18H49.7355ZM61.8233 14.094C61.8233 11.672 63.3913 10.118 65.3653 10.118C66.6113 10.118 67.4653 10.706 67.9273 11.35V10.244H69.9013V18H67.9273V16.866C67.4653 17.538 66.5833 18.126 65.3513 18.126C63.3913 18.126 61.8233 16.516 61.8233 14.094ZM67.9273 14.122C67.9273 12.652 66.9473 11.84 65.8693 11.84C64.8193 11.84 63.8253 12.624 63.8253 14.094C63.8253 15.564 64.8193 16.404 65.8693 16.404C66.9473 16.404 67.9273 15.592 67.9273 14.122ZM77.2476 18V13.716C77.2476 12.47 76.5616 11.798 75.5256 11.798C74.4616 11.798 73.7756 12.47 73.7756 13.716V18H71.8156V10.244H73.7756V11.21C74.2796 10.552 75.1196 10.132 76.1136 10.132C77.9196 10.132 79.2076 11.308 79.2076 13.45V18H77.2476ZM80.5675 14.094C80.5675 11.672 82.1355 10.118 84.1095 10.118C85.3555 10.118 86.2095 10.706 86.6715 11.35V10.244H88.6455V18H86.6715V16.866C86.2095 17.538 85.3275 18.126 84.0955 18.126C82.1355 18.126 80.5675 16.516 80.5675 14.094ZM86.6715 14.122C86.6715 12.652 85.6915 11.84 84.6135 11.84C83.5635 11.84 82.5695 12.624 82.5695 14.094C82.5695 15.564 83.5635 16.404 84.6135 16.404C85.6915 16.404 86.6715 15.592 86.6715 14.122ZM90.0557 14.094C90.0557 11.672 91.6238 10.118 93.5978 10.118C94.8158 10.118 95.6978 10.678 96.1598 11.35V10.244H98.1338V18.056C98.1338 20.156 96.8458 21.822 94.2978 21.822C92.1138 21.822 90.5878 20.73 90.3918 18.952H92.3378C92.5338 19.652 93.2618 20.114 94.2418 20.114C95.3198 20.114 96.1598 19.498 96.1598 18.056V16.852C95.6978 17.524 94.8158 18.126 93.5978 18.126C91.6238 18.126 90.0557 16.516 90.0557 14.094ZM96.1598 14.122C96.1598 12.652 95.1798 11.84 94.1018 11.84C93.0518 11.84 92.0578 12.624 92.0578 14.094C92.0578 15.564 93.0518 16.404 94.1018 16.404C95.1798 16.404 96.1598 15.592 96.1598 14.122ZM103.38 11.728C102.442 11.728 101.7 12.33 101.546 13.394H105.228C105.2 12.372 104.388 11.728 103.38 11.728ZM107.062 15.564C106.642 16.992 105.354 18.126 103.436 18.126C101.182 18.126 99.544 16.558 99.544 14.122C99.544 11.672 101.14 10.118 103.436 10.118C105.676 10.118 107.258 11.644 107.258 13.954C107.258 14.206 107.244 14.458 107.202 14.71H101.532C101.63 15.858 102.414 16.502 103.394 16.502C104.234 16.502 104.696 16.082 104.948 15.564H107.062ZM119.539 18V13.716C119.539 12.484 118.853 11.84 117.817 11.84C116.767 11.84 116.081 12.484 116.081 13.716V18H114.121V13.716C114.121 12.484 113.435 11.84 112.399 11.84C111.335 11.84 110.649 12.484 110.649 13.716V18H108.689V10.244H110.649V11.182C111.139 10.538 111.965 10.132 112.931 10.132C114.135 10.132 115.129 10.65 115.661 11.616C116.165 10.734 117.187 10.132 118.321 10.132C120.183 10.132 121.499 11.308 121.499 13.45V18H119.539ZM126.691 11.728C125.753 11.728 125.011 12.33 124.857 13.394H128.539C128.511 12.372 127.699 11.728 126.691 11.728ZM130.373 15.564C129.953 16.992 128.665 18.126 126.747 18.126C124.493 18.126 122.855 16.558 122.855 14.122C122.855 11.672 124.451 10.118 126.747 10.118C128.987 10.118 130.569 11.644 130.569 13.954C130.569 14.206 130.555 14.458 130.513 14.71H124.843C124.941 15.858 125.725 16.502 126.705 16.502C127.545 16.502 128.007 16.082 128.259 15.564H130.373ZM137.431 18V13.716C137.431 12.47 136.745 11.798 135.709 11.798C134.645 11.798 133.959 12.47 133.959 13.716V18H131.999V10.244H133.959V11.21C134.463 10.552 135.303 10.132 136.297 10.132C138.103 10.132 139.391 11.308 139.391 13.45V18H137.431ZM141.563 15.592V11.854H140.639V10.244H141.563V8.326H143.537V10.244H145.273V11.854H143.537V15.606C143.537 16.124 143.747 16.348 144.363 16.348H145.273V18H144.041C142.557 18 141.563 17.37 141.563 15.592Z" fill="white"/>
</svg>
