<svg width="73" height="26" viewBox="0 0 73 26" fill="none" xmlns="http://www.w3.org/2000/svg">
<path d="M2.14569e-07 13L5 7L5 19L2.14569e-07 13Z" fill="black" fill-opacity="0.7"/>
<rect x="5" width="68" height="26" rx="2" fill="black" fill-opacity="0.7"/>
<path d="M21.146 11.266C21.146 12.148 20.656 12.722 19.564 12.722H17.926V9.852H19.564C20.656 9.852 21.146 10.398 21.146 11.266ZM15.966 8.228V18H17.926V14.192H18.85L21.006 18H23.274L20.936 14.038C22.504 13.618 23.162 12.414 23.162 11.224C23.162 9.586 21.986 8.228 19.634 8.228H15.966ZM28.2668 11.728C29.2748 11.728 30.0868 12.372 30.1148 13.394H26.4328C26.5868 12.33 27.3288 11.728 28.2668 11.728ZM31.9488 15.564H29.8348C29.5828 16.082 29.1208 16.502 28.2808 16.502C27.3008 16.502 26.5168 15.858 26.4188 14.71H32.0888C32.1308 14.458 32.1448 14.206 32.1448 13.954C32.1448 11.644 30.5628 10.118 28.3228 10.118C26.0267 10.118 24.4307 11.672 24.4307 14.122C24.4307 16.558 26.0688 18.126 28.3228 18.126C30.2408 18.126 31.5288 16.992 31.9488 15.564ZM35.5354 11.364V10.244H33.5754V21.696H35.5354V16.894C36.0114 17.524 36.8794 18.126 38.0974 18.126C40.0854 18.126 41.6394 16.516 41.6394 14.094C41.6394 11.672 40.0854 10.118 38.0974 10.118C36.8934 10.118 35.9974 10.706 35.5354 11.364ZM39.6374 14.094C39.6374 15.564 38.6434 16.404 37.5794 16.404C36.5294 16.404 35.5354 15.592 35.5354 14.122C35.5354 12.652 36.5294 11.84 37.5794 11.84C38.6434 11.84 39.6374 12.624 39.6374 14.094ZM50.5537 14.122C50.5537 11.672 48.8037 10.118 46.5637 10.118C44.3237 10.118 42.5737 11.672 42.5737 14.122C42.5737 16.558 44.2677 18.126 46.5077 18.126C48.7617 18.126 50.5537 16.558 50.5537 14.122ZM44.5617 14.122C44.5617 12.568 45.4997 11.826 46.5357 11.826C47.5717 11.826 48.5377 12.568 48.5377 14.122C48.5377 15.662 47.5437 16.418 46.5077 16.418C45.4577 16.418 44.5617 15.662 44.5617 14.122ZM53.9514 14.136C53.9514 12.638 54.6514 12.19 55.8134 12.19H56.3314V10.132C55.2534 10.132 54.4414 10.65 53.9514 11.448V10.244H51.9914V18H53.9514V14.136ZM57.9595 15.592C57.9595 17.37 58.9535 18 60.4375 18H61.6695V16.348H60.7595C60.1435 16.348 59.9335 16.124 59.9335 15.606V11.854H61.6695V10.244H59.9335V8.326H57.9595V10.244H57.0355V11.854H57.9595V15.592Z" fill="white"/>
</svg>
