<svg width="30" height="26" viewBox="0 0 30 26" fill="none" xmlns="http://www.w3.org/2000/svg">
<path d="M5.99999 5.66667C5.99999 2.53706 8.53704 0 11.6667 0C14.7963 0 17.3333 2.53706 17.3333 5.66667C17.3333 8.79629 14.7963 11.3333 11.6667 11.3333C8.53704 11.3333 5.99999 8.79629 5.99999 5.66667ZM11.6667 2C9.64161 2 7.99999 3.64162 7.99999 5.66667C7.99999 7.69172 9.64161 9.33333 11.6667 9.33333C13.6917 9.33333 15.3333 7.69172 15.3333 5.66667C15.3333 3.64162 13.6917 2 11.6667 2Z" fill="#666666"/>
<path d="M19.8819 1.15055C20.167 0.677511 20.7815 0.525105 21.2546 0.810146C22.8976 1.80016 24.0001 3.60419 24.0001 5.66667C24.0001 7.72915 22.8976 9.53318 21.2546 10.5232C20.7815 10.8082 20.167 10.6558 19.8819 10.1828C19.5969 9.70974 19.7493 9.09519 20.2223 8.81015C21.2898 8.16696 22.0001 6.99925 22.0001 5.66667C22.0001 4.33408 21.2898 3.16638 20.2223 2.52319C19.7493 2.23815 19.5969 1.6236 19.8819 1.15055Z" fill="#666666"/>
<path d="M10.156 14.6667H13.1773C14.6335 14.6667 15.7875 14.6667 16.7177 14.7426C17.6688 14.8204 18.4737 14.9825 19.2086 15.3569C20.4003 15.9641 21.3692 16.933 21.9764 18.1247C22.3508 18.8596 22.513 19.6645 22.5907 20.6157C22.6667 21.5458 22.6667 22.6998 22.6667 24.156V25C22.6667 25.5523 22.2189 26 21.6667 26H1.66666C1.11437 26 0.666657 25.5523 0.666657 25L0.666657 24.156C0.666649 22.6998 0.666643 21.5458 0.74264 20.6157C0.820356 19.6645 0.9825 18.8596 1.35695 18.1247C1.96414 16.9331 2.93301 15.9641 4.12471 15.3569C4.85961 14.9825 5.66447 14.8204 6.61565 14.7426C7.54581 14.6667 8.69981 14.6667 10.156 14.6667ZM5.03268 17.139C4.21733 17.5544 3.55441 18.2174 3.13897 19.0327C2.93212 19.4387 2.80361 19.951 2.736 20.7785C2.6705 21.5802 2.66686 22.5946 2.66667 24H20.6666C20.6665 22.5946 20.6628 21.5802 20.5973 20.7785C20.5297 19.951 20.4012 19.4387 20.1944 19.0327C19.7789 18.2174 19.116 17.5544 18.3006 17.139M18.3006 17.139C17.8947 16.9321 17.3823 16.8036 16.5548 16.736C15.7156 16.6674 14.6433 16.6667 13.1333 16.6667H10.2C8.69002 16.6667 7.61769 16.6674 6.77851 16.736C5.95102 16.8036 5.43865 16.9321 5.03268 17.139" fill="#666666"/>
<path d="M24.5302 15.7939C24.7809 15.3019 25.3831 15.1062 25.8752 15.3569C27.0669 15.9641 28.0358 16.933 28.643 18.1247C29.0174 18.8596 29.1796 19.6645 29.2573 20.6157C29.3333 21.5458 29.3333 22.6998 29.3333 24.156V25C29.3333 25.5523 28.8855 26 28.3333 26C27.781 26 27.3333 25.5523 27.3333 25V24.2C27.3333 22.69 27.3325 21.6177 27.2639 20.7785C27.1963 19.951 27.0678 19.4387 26.861 19.0327M24.5302 15.7939C24.2795 16.286 24.4751 16.8882 24.9672 17.1389L24.5302 15.7939ZM24.9672 17.1389C25.3867 17.3527 25.7659 17.632 26.0917 17.9638C26.3992 18.2769 26.6593 18.6369 26.861 19.0327" fill="#666666"/>
<path d="M26.0917 17.9638L24.5302 15.7939L24.9672 17.1389C25.3867 17.3527 25.7659 17.632 26.0917 17.9638Z" fill="#666666"/>
</svg>
