<svg width="32" height="32" viewBox="0 0 32 32" fill="none" xmlns="http://www.w3.org/2000/svg">
<path fill-rule="evenodd" clip-rule="evenodd" d="M4.66666 5C4.11437 5 3.66666 5.44772 3.66666 6V22C3.66666 22.5523 4.11437 23 4.66666 23H27.3333C27.8856 23 28.3333 22.5523 28.3333 22V6C28.3333 5.44772 27.8856 5 27.3333 5H4.66666ZM1.66666 6C1.66666 4.34315 3.0098 3 4.66666 3H27.3333C28.9902 3 30.3333 4.34315 30.3333 6V22C30.3333 23.6569 28.9902 25 27.3333 25H4.66666C3.0098 25 1.66666 23.6569 1.66666 22V6Z" fill="#666666"/>
<path fill-rule="evenodd" clip-rule="evenodd" d="M16 23C16.5523 23 17 23.4477 17 24V28.6667C17 29.219 16.5523 29.6667 16 29.6667C15.4477 29.6667 15 29.219 15 28.6667V24C15 23.4477 15.4477 23 16 23Z" fill="#666666"/>
<path fill-rule="evenodd" clip-rule="evenodd" d="M22.0859 8.67549C22.4496 9.09113 22.4075 9.72289 21.9918 10.0866L11.3252 19.4199C10.9095 19.7836 10.2778 19.7415 9.91409 19.3258C9.55041 18.9102 9.59253 18.2784 10.0082 17.9148L20.6748 8.58142C21.0905 8.21774 21.7222 8.25986 22.0859 8.67549Z" fill="#666666"/>
<path fill-rule="evenodd" clip-rule="evenodd" d="M5.66666 28.666C5.66666 28.1137 6.11437 27.666 6.66666 27.666H25.3333C25.8856 27.666 26.3333 28.1137 26.3333 28.666C26.3333 29.2183 25.8856 29.666 25.3333 29.666H6.66666C6.11437 29.666 5.66666 29.2183 5.66666 28.666Z" fill="#666666"/>
<path fill-rule="evenodd" clip-rule="evenodd" d="M10 10.334C9.44772 10.334 9 10.7817 9 11.334C9 11.8863 9.44772 12.334 10 12.334C10.5523 12.334 11 11.8863 11 11.334C11 10.7817 10.5523 10.334 10 10.334ZM7 11.334C7 9.67713 8.34315 8.33398 10 8.33398C11.6569 8.33398 13 9.67713 13 11.334C13 12.9908 11.6569 14.334 10 14.334C8.34315 14.334 7 12.9908 7 11.334Z" fill="#666666"/>
<path fill-rule="evenodd" clip-rule="evenodd" d="M22 15.666C21.4477 15.666 21 16.1137 21 16.666C21 17.2183 21.4477 17.666 22 17.666C22.5523 17.666 23 17.2183 23 16.666C23 16.1137 22.5523 15.666 22 15.666ZM19 16.666C19 15.0092 20.3431 13.666 22 13.666C23.6569 13.666 25 15.0092 25 16.666C25 18.3229 23.6569 19.666 22 19.666C20.3431 19.666 19 18.3229 19 16.666Z" fill="#666666"/>
</svg>
