<svg width="32" height="32" viewBox="0 0 32 32" fill="none" xmlns="http://www.w3.org/2000/svg">
<path fill-rule="evenodd" clip-rule="evenodd" d="M3.99999 6.33398C3.81589 6.33398 3.66666 6.48322 3.66666 6.66732V25.334C3.66666 25.5181 3.81589 25.6673 3.99999 25.6673H28C28.1841 25.6673 28.3333 25.5181 28.3333 25.334V6.66732C28.3333 6.48322 28.1841 6.33398 28 6.33398H3.99999ZM1.66666 6.66732C1.66666 5.37865 2.71133 4.33398 3.99999 4.33398H28C29.2887 4.33398 30.3333 5.37865 30.3333 6.66732V25.334C30.3333 26.6226 29.2887 27.6673 28 27.6673H3.99999C2.71133 27.6673 1.66666 26.6226 1.66666 25.334V6.66732Z" fill="#666666"/>
<path fill-rule="evenodd" clip-rule="evenodd" d="M21.3333 15.666C21.8856 15.666 22.3333 16.1137 22.3333 16.666V21.3327C22.3333 21.885 21.8856 22.3327 21.3333 22.3327C20.7811 22.3327 20.3333 21.885 20.3333 21.3327V16.666C20.3333 16.1137 20.7811 15.666 21.3333 15.666Z" fill="#666666"/>
<path fill-rule="evenodd" clip-rule="evenodd" d="M16 9.66602C16.5523 9.66602 17 10.1137 17 10.666V21.3327C17 21.885 16.5523 22.3327 16 22.3327C15.4477 22.3327 15 21.885 15 21.3327V10.666C15 10.1137 15.4477 9.66602 16 9.66602Z" fill="#666666"/>
<path fill-rule="evenodd" clip-rule="evenodd" d="M10.6667 12.334C11.2189 12.334 11.6667 12.7817 11.6667 13.334V21.334C11.6667 21.8863 11.2189 22.334 10.6667 22.334C10.1144 22.334 9.66666 21.8863 9.66666 21.334V13.334C9.66666 12.7817 10.1144 12.334 10.6667 12.334Z" fill="#666666"/>
</svg>
