<svg width="32" height="32" viewBox="0 0 32 32" fill="none" xmlns="http://www.w3.org/2000/svg">
<path fill-rule="evenodd" clip-rule="evenodd" d="M6.66668 3.66602C6.48258 3.66602 6.33334 3.81525 6.33334 3.99935V27.9993C6.33334 28.1835 6.48257 28.3327 6.66668 28.3327H25.3333C25.5175 28.3327 25.6667 28.1835 25.6667 27.9993V9.7469L19.5858 3.66602H6.66668ZM4.33334 3.99935C4.33334 2.71068 5.37801 1.66602 6.66668 1.66602H20C20.2652 1.66602 20.5196 1.77137 20.7071 1.95891L27.3738 8.62558C27.5613 8.81311 27.6667 9.06747 27.6667 9.33268V27.9993C27.6667 29.288 26.622 30.3327 25.3333 30.3327H6.66668C5.37802 30.3327 4.33334 29.288 4.33334 27.9993V3.99935Z" fill="#666666"/>
<path fill-rule="evenodd" clip-rule="evenodd" d="M9.66666 13.334C9.66666 12.7817 10.1144 12.334 10.6667 12.334H21.3333C21.8856 12.334 22.3333 12.7817 22.3333 13.334C22.3333 13.8863 21.8856 14.334 21.3333 14.334H10.6667C10.1144 14.334 9.66666 13.8863 9.66666 13.334Z" fill="#666666"/>
<path fill-rule="evenodd" clip-rule="evenodd" d="M9.66666 18.666C9.66666 18.1137 10.1144 17.666 10.6667 17.666H21.3333C21.8856 17.666 22.3333 18.1137 22.3333 18.666C22.3333 19.2183 21.8856 19.666 21.3333 19.666H10.6667C10.1144 19.666 9.66666 19.2183 9.66666 18.666Z" fill="#666666"/>
</svg>
