<svg width="32" height="32" viewBox="0 0 32 32" fill="none" xmlns="http://www.w3.org/2000/svg">
<path fill-rule="evenodd" clip-rule="evenodd" d="M12.1679 2.1848C12.6258 2.05806 13.1096 2.27093 13.3255 2.69411C13.8229 3.66909 14.8348 4.33322 16 4.33322C17.1652 4.33322 18.1771 3.66909 18.6745 2.69411C18.8904 2.27093 19.3742 2.05806 19.832 2.1848C22.0779 2.8065 24.1012 3.96041 25.7579 5.50087C26.0814 5.8017 26.1692 6.27918 25.9738 6.67542C25.7775 7.07367 25.6667 7.52242 25.6667 7.99988C25.6667 9.65672 27.0098 10.9999 28.6667 10.9999L28.7085 10.9996C29.1506 10.9933 29.5443 11.278 29.6768 11.6998C30.1036 13.0585 30.3333 14.5033 30.3333 15.9999C30.3333 16.9876 30.2333 17.9531 30.0424 18.8863C29.9397 19.388 29.4746 19.7312 28.9649 19.6811C28.8671 19.6715 28.7677 19.6665 28.6667 19.6665C27.0098 19.6665 25.6667 21.0097 25.6667 22.6665C25.6667 23.404 25.9315 24.0771 26.3724 24.5996C26.7027 24.9911 26.6838 25.5688 26.3286 25.9379C24.6369 27.6957 22.4994 29.0236 20.0961 29.7391C19.5743 29.8945 19.0241 29.6038 18.8583 29.0852C18.4713 27.8745 17.3365 26.9999 16 26.9999C14.6635 26.9999 13.5287 27.8745 13.1417 29.0852C12.9759 29.6038 12.4257 29.8945 11.9038 29.7391C9.50059 29.0236 7.36305 27.6957 5.67137 25.9379C5.3162 25.5688 5.29731 24.9911 5.62761 24.5996C6.06851 24.0771 6.33332 23.404 6.33332 22.6665C6.33332 21.0097 4.99018 19.6665 3.33332 19.6665C3.2323 19.6665 3.13283 19.6715 3.03511 19.6811C2.5254 19.7312 2.06024 19.388 1.9576 18.8863C1.76672 17.9531 1.66666 16.9876 1.66666 15.9999C1.66666 14.5033 1.89635 13.0585 2.32314 11.6998C2.45563 11.278 2.84938 10.9933 3.29146 10.9996L3.33332 10.9999C4.99018 10.9999 6.33332 9.65672 6.33332 7.99988C6.33332 7.52242 6.22251 7.07367 6.02615 6.67542C5.83078 6.27918 5.91858 5.8017 6.24211 5.50087C7.89881 3.96041 9.92204 2.8065 12.1679 2.1848ZM8.11034 6.51976C8.25535 6.98819 8.33332 7.48553 8.33332 7.99988C8.33332 10.5191 6.47014 12.6033 4.04656 12.9494C3.79863 13.9241 3.66666 14.946 3.66666 15.9999C3.66666 16.5724 3.7056 17.1353 3.78088 17.6863C6.33263 17.9127 8.33332 20.056 8.33332 22.6665C8.33332 23.5558 8.10052 24.392 7.69294 25.1161C8.83526 26.1577 10.1734 26.987 11.6448 27.5425C12.5027 26.0251 14.1307 24.9999 16 24.9999C17.8693 24.9999 19.4972 26.0251 20.3552 27.5425C21.8266 26.987 23.1647 26.1577 24.307 25.1161C23.8995 24.392 23.6667 23.5558 23.6667 22.6665C23.6667 20.056 25.6674 17.9127 28.2191 17.6863C28.2944 17.1353 28.3333 16.5724 28.3333 15.9999C28.3333 14.946 28.2013 13.9241 27.9534 12.9494C25.5298 12.6032 23.6667 10.5191 23.6667 7.99988C23.6667 7.48553 23.7446 6.98819 23.8896 6.51976C22.749 5.56934 21.4349 4.8214 20.0024 4.33021C19.0912 5.54517 17.6382 6.33322 16 6.33322C14.3618 6.33322 12.9088 5.54517 11.9976 4.33021C10.5651 4.8214 9.25096 5.56934 8.11034 6.51976Z" fill="#666666"/>
<path fill-rule="evenodd" clip-rule="evenodd" d="M10.3333 16.0007C10.3333 12.871 12.8704 10.334 16 10.334C19.1296 10.334 21.6667 12.871 21.6667 16.0007C21.6667 19.1303 19.1296 21.6673 16 21.6673C12.8704 21.6673 10.3333 19.1303 10.3333 16.0007ZM16 12.334C13.975 12.334 12.3333 13.9756 12.3333 16.0007C12.3333 18.0257 13.975 19.6673 16 19.6673C18.0251 19.6673 19.6667 18.0257 19.6667 16.0007C19.6667 13.9756 18.0251 12.334 16 12.334Z" fill="#666666"/>
</svg>
