<svg width="32" height="32" viewBox="0 0 32 32" fill="none" xmlns="http://www.w3.org/2000/svg">
<path fill-rule="evenodd" clip-rule="evenodd" d="M1.66666 2.66602C1.66666 2.11373 2.11437 1.66602 2.66666 1.66602H15.3333C15.8856 1.66602 16.3333 2.11373 16.3333 2.66602V17.3327C16.3333 17.885 15.8856 18.3327 15.3333 18.3327H2.66666C2.11437 18.3327 1.66666 17.885 1.66666 17.3327V2.66602ZM3.66666 3.66602V16.3327H14.3333V3.66602H3.66666Z" fill="#666666"/>
<path fill-rule="evenodd" clip-rule="evenodd" d="M1.66666 22.666C1.66666 22.1137 2.11437 21.666 2.66666 21.666H29.3333C29.8856 21.666 30.3333 22.1137 30.3333 22.666V28.666C30.3333 29.2183 29.8856 29.666 29.3333 29.666H2.66666C2.11437 29.666 1.66666 29.2183 1.66666 28.666V22.666ZM3.66666 23.666V27.666H28.3333V23.666H3.66666Z" fill="#666666"/>
<path fill-rule="evenodd" clip-rule="evenodd" d="M19.6667 2.66602C19.6667 2.11373 20.1144 1.66602 20.6667 1.66602H29.3333C29.8856 1.66602 30.3333 2.11373 30.3333 2.66602V7.99934C30.3333 8.55162 29.8856 8.99934 29.3333 8.99934H20.6667C20.1144 8.99934 19.6667 8.55162 19.6667 7.99934V2.66602ZM21.6667 3.66602V6.99934H28.3333V3.66602H21.6667Z" fill="#666666"/>
<path fill-rule="evenodd" clip-rule="evenodd" d="M19.6667 12C19.6667 11.4477 20.1144 11 20.6667 11H29.3333C29.8856 11 30.3333 11.4477 30.3333 12V17.3333C30.3333 17.8856 29.8856 18.3333 29.3333 18.3333H20.6667C20.1144 18.3333 19.6667 17.8856 19.6667 17.3333V12ZM21.6667 13V16.3333H28.3333V13H21.6667Z" fill="#666666"/>
</svg>
