<svg width="42" height="40" viewBox="0 0 42 40" fill="none" xmlns="http://www.w3.org/2000/svg">
<rect x="0.5" y="0.5" width="41" height="39" rx="4.5" fill="#EDF3FE"/>
<path fill-rule="evenodd" clip-rule="evenodd" d="M13.739 14.1398C13.8309 13.9403 14.0304 13.8125 14.25 13.8125H27.75C27.9696 13.8125 28.1692 13.9403 28.261 14.1398C28.3528 14.3393 28.3201 14.574 28.1773 14.7408L22.9125 20.8896V26.75C22.9125 26.9445 22.8121 27.1251 22.6469 27.2278C22.4818 27.3304 22.2753 27.3405 22.1009 27.2544L19.4009 25.921C19.209 25.8262 19.0875 25.6307 19.0875 25.4167V20.8896L13.8227 14.7408C13.6799 14.574 13.6472 14.3393 13.739 14.1398ZM15.4722 14.9375L20.0773 20.3158C20.1645 20.4177 20.2125 20.5475 20.2125 20.6817V25.0671L21.7875 25.8449V20.6817C21.7875 20.5475 21.8355 20.4177 21.9227 20.3158L26.5278 14.9375H15.4722Z" fill="#5E90F0"/>
<rect x="0.5" y="0.5" width="41" height="39" rx="4.5" stroke="#5E90F0"/>
</svg>
