<svg width="20" height="20" viewBox="0 0 20 20" fill="none" xmlns="http://www.w3.org/2000/svg">
<path fill-rule="evenodd" clip-rule="evenodd" d="M1.04166 8.75033C1.04166 4.49315 4.49282 1.04199 8.75 1.04199C13.0072 1.04199 16.4583 4.49315 16.4583 8.75033C16.4583 13.0075 13.0072 16.4587 8.75 16.4587C4.49282 16.4587 1.04166 13.0075 1.04166 8.75033ZM8.75 2.29199C5.18318 2.29199 2.29166 5.1835 2.29166 8.75033C2.29166 12.3171 5.18318 15.2087 8.75 15.2087C12.3168 15.2087 15.2083 12.3171 15.2083 8.75033C15.2083 5.1835 12.3168 2.29199 8.75 2.29199Z" fill="#333333"/>
<path fill-rule="evenodd" clip-rule="evenodd" d="M13.4005 13.4008C13.6446 13.1568 14.0403 13.1568 14.2844 13.4008L17.8199 16.9364C18.064 17.1804 18.064 17.5762 17.8199 17.8203C17.5758 18.0643 17.1801 18.0643 16.936 17.8203L13.4005 14.2847C13.1564 14.0406 13.1564 13.6449 13.4005 13.4008Z" fill="#333333"/>
</svg>
