<svg width="16" height="16" viewBox="0 0 16 16" fill="none" xmlns="http://www.w3.org/2000/svg">
<path fill-rule="evenodd" clip-rule="evenodd" d="M6.33337 1.5C6.60952 1.5 6.83337 1.72386 6.83337 2V14C6.83337 14.2761 6.60952 14.5 6.33337 14.5C6.05723 14.5 5.83337 14.2761 5.83337 14V2C5.83337 1.72386 6.05723 1.5 6.33337 1.5Z" fill="#666666"/>
<path fill-rule="evenodd" clip-rule="evenodd" d="M6.68693 1.61324C6.88219 1.80851 6.88219 2.12509 6.68693 2.32035L2.68693 6.32035C2.49167 6.51562 2.17508 6.51562 1.97982 6.32035C1.78456 6.12509 1.78456 5.80851 1.97982 5.61325L5.97982 1.61324C6.17508 1.41798 6.49167 1.41798 6.68693 1.61324Z" fill="#666666"/>
<path fill-rule="evenodd" clip-rule="evenodd" d="M9.66663 1.5332C9.94277 1.5332 10.1666 1.75706 10.1666 2.0332V14.0332C10.1666 14.3093 9.94277 14.5332 9.66663 14.5332C9.39048 14.5332 9.16663 14.3093 9.16663 14.0332V2.0332C9.16663 1.75706 9.39048 1.5332 9.66663 1.5332Z" fill="#999999"/>
<path fill-rule="evenodd" clip-rule="evenodd" d="M14.0202 9.67965C14.2154 9.87491 14.2154 10.1915 14.0202 10.3868L10.0202 14.3868C9.82492 14.582 9.50833 14.582 9.31307 14.3868C9.11781 14.1915 9.11781 13.8749 9.31307 13.6796L13.3131 9.67965C13.5083 9.48439 13.8249 9.48439 14.0202 9.67965Z" fill="#999999"/>
</svg>
