<svg width="39" height="32" viewBox="0 0 39 32" fill="none" xmlns="http://www.w3.org/2000/svg">
<rect x="1" y="0.5" width="37" height="31" rx="2.5" fill="white"/>
<path fill-rule="evenodd" clip-rule="evenodd" d="M14.361 13.2752C15.6659 12.1572 17.4792 11.3125 19.5 11.3125C21.5207 11.3125 23.334 12.1566 24.6389 13.2743C25.9217 14.3732 26.8125 15.8278 26.8125 17.125C26.8125 18.4222 25.9217 19.8768 24.6389 20.9757C23.334 22.0934 21.5207 22.9375 19.5 22.9375C17.4792 22.9375 15.6659 22.0928 14.361 20.9748C13.0783 19.8757 12.1875 18.4212 12.1875 17.125C12.1875 15.8288 13.0783 14.3743 14.361 13.2752ZM15.093 14.1295C13.9327 15.1237 13.3125 16.2941 13.3125 17.125C13.3125 17.9559 13.9327 19.1263 15.093 20.1205C16.2312 21.0957 17.7929 21.8125 19.5 21.8125C21.2072 21.8125 22.7689 21.0962 23.907 20.1213C25.0672 19.1274 25.6875 17.957 25.6875 17.125C25.6875 16.293 25.0672 15.1225 23.907 14.1287C22.7689 13.1538 21.2072 12.4375 19.5 12.4375C17.7929 12.4375 16.2312 13.1543 15.093 14.1295Z" fill="#5E90F0"/>
<path fill-rule="evenodd" clip-rule="evenodd" d="M16.6875 17.125C16.6875 15.5717 17.9467 14.3125 19.5 14.3125C21.0533 14.3125 22.3125 15.5717 22.3125 17.125C22.3125 18.6783 21.0533 19.9375 19.5 19.9375C17.9467 19.9375 16.6875 18.6783 16.6875 17.125ZM19.5 15.4375C18.568 15.4375 17.8125 16.193 17.8125 17.125C17.8125 18.057 18.568 18.8125 19.5 18.8125C20.432 18.8125 21.1875 18.057 21.1875 17.125C21.1875 16.193 20.432 15.4375 19.5 15.4375Z" fill="#5E90F0"/>
<path fill-rule="evenodd" clip-rule="evenodd" d="M15.1463 10.7674C15.3988 10.5865 15.7502 10.6445 15.9311 10.897L16.9041 12.2546C17.085 12.5071 17.027 12.8585 16.7745 13.0394C16.522 13.2204 16.1706 13.1624 15.9896 12.9099L15.0167 11.5523C14.8357 11.2998 14.8937 10.9484 15.1463 10.7674Z" fill="#5E90F0"/>
<path fill-rule="evenodd" clip-rule="evenodd" d="M24.1872 10.9344C24.4397 11.1154 24.4977 11.4668 24.3167 11.7193L23.3437 13.0769C23.1627 13.3294 22.8113 13.3874 22.5588 13.2064C22.3063 13.0255 22.2483 12.674 22.4293 12.4215L23.4023 11.064C23.5833 10.8115 23.9347 10.7535 24.1872 10.9344Z" fill="#5E90F0"/>
<path fill-rule="evenodd" clip-rule="evenodd" d="M19.5034 9.0625C19.8141 9.0625 20.0659 9.31434 20.0659 9.625V11.875C20.0659 12.1857 19.8141 12.4375 19.5034 12.4375C19.1928 12.4375 18.9409 12.1857 18.9409 11.875V9.625C18.9409 9.31434 19.1928 9.0625 19.5034 9.0625Z" fill="#5E90F0"/>
<rect x="1" y="0.5" width="37" height="31" rx="2.5" stroke="#5E90F0"/>
</svg>
