<svg width="39" height="32" viewBox="0 0 39 32" fill="none" xmlns="http://www.w3.org/2000/svg">
<rect x="1" y="0.5" width="37" height="31" rx="2.5" fill="white"/>
<path fill-rule="evenodd" clip-rule="evenodd" d="M23.7663 8.06514C23.986 7.84547 24.3422 7.84547 24.5618 8.06514L27.7438 11.2471C27.8493 11.3526 27.9086 11.4957 27.9086 11.6449C27.9086 11.794 27.8493 11.9371 27.7438 12.0426L16.0766 23.7099C15.9711 23.8154 15.828 23.8746 15.6788 23.8746L12.4969 23.8746C12.1863 23.8745 11.9344 23.6227 11.9344 23.3121L11.9343 20.1302C11.9343 19.981 11.9936 19.8379 12.0991 19.7324L23.7663 8.06514ZM24.1641 9.25838L13.0593 20.3631L13.0594 22.7496L15.4458 22.7496L26.5506 11.6449L24.1641 9.25838Z" fill="#5E90F0"/>
<path fill-rule="evenodd" clip-rule="evenodd" d="M20.5842 11.2478C20.8039 11.0281 21.16 11.0281 21.3797 11.2478L24.5617 14.4297C24.7813 14.6494 24.7813 15.0056 24.5617 15.2252C24.342 15.4449 23.9858 15.4449 23.7662 15.2252L20.5842 12.0433C20.3645 11.8236 20.3645 11.4674 20.5842 11.2478Z" fill="#5E90F0"/>
<rect x="1" y="0.5" width="37" height="31" rx="2.5" stroke="#5E90F0"/>
</svg>
