<svg width="21" height="20" viewBox="0 0 21 20" fill="none" xmlns="http://www.w3.org/2000/svg">
<path fill-rule="evenodd" clip-rule="evenodd" d="M2.99984 2.29199C2.88478 2.29199 2.7915 2.38527 2.7915 2.50033V17.5003C2.7915 17.6154 2.88478 17.7087 2.99984 17.7087H17.9998C18.1149 17.7087 18.2082 17.6154 18.2082 17.5003V2.50033C18.2082 2.38527 18.1149 2.29199 17.9998 2.29199H2.99984ZM1.5415 2.50033C1.5415 1.69491 2.19442 1.04199 2.99984 1.04199H17.9998C18.8053 1.04199 19.4582 1.69491 19.4582 2.50033V17.5003C19.4582 18.3057 18.8053 18.9587 17.9998 18.9587H2.99984C2.19442 18.9587 1.5415 18.3057 1.5415 17.5003V2.50033Z" fill="#666666"/>
<path fill-rule="evenodd" clip-rule="evenodd" d="M1.5415 5.83301C1.5415 5.48783 1.82133 5.20801 2.1665 5.20801H18.8332C19.1783 5.20801 19.4582 5.48783 19.4582 5.83301C19.4582 6.17819 19.1783 6.45801 18.8332 6.45801H2.1665C1.82133 6.45801 1.5415 6.17819 1.5415 5.83301Z" fill="#666666"/>
<path fill-rule="evenodd" clip-rule="evenodd" d="M18.8335 3.95801C19.1787 3.95801 19.4585 4.23783 19.4585 4.58301V9.58301C19.4585 9.92819 19.1787 10.208 18.8335 10.208C18.4883 10.208 18.2085 9.92819 18.2085 9.58301V4.58301C18.2085 4.23783 18.4883 3.95801 18.8335 3.95801Z" fill="#666666"/>
<path fill-rule="evenodd" clip-rule="evenodd" d="M4.875 9.16699C4.875 8.82181 5.15482 8.54199 5.5 8.54199H7.16667C7.51184 8.54199 7.79167 8.82181 7.79167 9.16699C7.79167 9.51217 7.51184 9.79199 7.16667 9.79199H5.5C5.15482 9.79199 4.875 9.51217 4.875 9.16699Z" fill="#666666"/>
<path fill-rule="evenodd" clip-rule="evenodd" d="M9.0415 9.16699C9.0415 8.82181 9.32133 8.54199 9.6665 8.54199H11.3332C11.6783 8.54199 11.9582 8.82181 11.9582 9.16699C11.9582 9.51217 11.6783 9.79199 11.3332 9.79199H9.6665C9.32133 9.79199 9.0415 9.51217 9.0415 9.16699Z" fill="#666666"/>
<path fill-rule="evenodd" clip-rule="evenodd" d="M13.2085 9.16699C13.2085 8.82181 13.4883 8.54199 13.8335 8.54199H15.5002C15.8453 8.54199 16.1252 8.82181 16.1252 9.16699C16.1252 9.51217 15.8453 9.79199 15.5002 9.79199H13.8335C13.4883 9.79199 13.2085 9.51217 13.2085 9.16699Z" fill="#666666"/>
<path fill-rule="evenodd" clip-rule="evenodd" d="M4.875 12.083C4.875 11.7378 5.15482 11.458 5.5 11.458H7.16667C7.51184 11.458 7.79167 11.7378 7.79167 12.083C7.79167 12.4282 7.51184 12.708 7.16667 12.708H5.5C5.15482 12.708 4.875 12.4282 4.875 12.083Z" fill="#666666"/>
<path fill-rule="evenodd" clip-rule="evenodd" d="M9.0415 12.083C9.0415 11.7378 9.32133 11.458 9.6665 11.458H11.3332C11.6783 11.458 11.9582 11.7378 11.9582 12.083C11.9582 12.4282 11.6783 12.708 11.3332 12.708H9.6665C9.32133 12.708 9.0415 12.4282 9.0415 12.083Z" fill="#666666"/>
<path fill-rule="evenodd" clip-rule="evenodd" d="M13.2085 12.083C13.2085 11.7378 13.4883 11.458 13.8335 11.458H15.5002C15.8453 11.458 16.1252 11.7378 16.1252 12.083C16.1252 12.4282 15.8453 12.708 15.5002 12.708H13.8335C13.4883 12.708 13.2085 12.4282 13.2085 12.083Z" fill="#666666"/>
<path fill-rule="evenodd" clip-rule="evenodd" d="M4.875 15C4.875 14.6548 5.15482 14.375 5.5 14.375H7.16667C7.51184 14.375 7.79167 14.6548 7.79167 15C7.79167 15.3452 7.51184 15.625 7.16667 15.625H5.5C5.15482 15.625 4.875 15.3452 4.875 15Z" fill="#666666"/>
<path fill-rule="evenodd" clip-rule="evenodd" d="M9.0415 15C9.0415 14.6548 9.32133 14.375 9.6665 14.375H11.3332C11.6783 14.375 11.9582 14.6548 11.9582 15C11.9582 15.3452 11.6783 15.625 11.3332 15.625H9.6665C9.32133 15.625 9.0415 15.3452 9.0415 15Z" fill="#666666"/>
<path fill-rule="evenodd" clip-rule="evenodd" d="M13.2085 15C13.2085 14.6548 13.4883 14.375 13.8335 14.375H15.5002C15.8453 14.375 16.1252 14.6548 16.1252 15C16.1252 15.3452 15.8453 15.625 15.5002 15.625H13.8335C13.4883 15.625 13.2085 15.3452 13.2085 15Z" fill="#666666"/>
<path fill-rule="evenodd" clip-rule="evenodd" d="M2.1665 3.95801C2.51168 3.95801 2.7915 4.23783 2.7915 4.58301V9.58301C2.7915 9.92819 2.51168 10.208 2.1665 10.208C1.82133 10.208 1.5415 9.92819 1.5415 9.58301V4.58301C1.5415 4.23783 1.82133 3.95801 2.1665 3.95801Z" fill="#666666"/>
</svg>
