<svg width="16" height="16" viewBox="0 0 16 16" fill="none" xmlns="http://www.w3.org/2000/svg">
<path fill-rule="evenodd" clip-rule="evenodd" d="M4.31295 4.31344C4.50821 4.11818 4.8248 4.11818 5.02006 4.31344L11.6867 10.9801C11.882 11.1754 11.882 11.492 11.6867 11.6872C11.4915 11.8825 11.1749 11.8825 10.9796 11.6872L4.31295 5.02055C4.11769 4.82528 4.11769 4.5087 4.31295 4.31344Z" fill="#999999"/>
<path fill-rule="evenodd" clip-rule="evenodd" d="M11.6867 4.31344C11.882 4.5087 11.882 4.82528 11.6867 5.02055L5.02006 11.6872C4.8248 11.8825 4.50821 11.8825 4.31295 11.6872C4.11769 11.492 4.11769 11.1754 4.31295 10.9801L10.9796 4.31344C11.1749 4.11818 11.4915 4.11818 11.6867 4.31344Z" fill="#999999"/>
</svg>
